nColumns=28
nRows=73
DataType=double
version=3
OpenSimVersion=4.1
endheader
time	ground_force_1_vx	ground_force_1_vy	ground_force_1_vz	ground_force_1_px	ground_force_1_py	ground_force_1_pz	ground_force_1_mx	ground_force_1_my	ground_force_1_mz	ground_force_2_vx	ground_force_2_vy	ground_force_2_vz	ground_force_2_px	ground_force_2_py	ground_force_2_pz	ground_force_2_mx	ground_force_2_my	ground_force_2_mz	ground_force_3_vx	ground_force_3_vy	ground_force_3_vz	ground_force_3_px	ground_force_3_py	ground_force_3_pz	ground_force_3_mx	ground_force_3_my	ground_force_3_mz
6.28	10.7742	550.297	-2.1253	-0.282202	0.006	-0.45709	0	0.983626	0	-0.629425	66.0554	1.16523	-0.246704	0.006	-0.825364	0	0.92184	0	0	0	0	0	0	0	0	0	0
6.29	10.2399	548.509	-2.19947	-0.281911	0.006	-0.456961	0	0.875435	0	-0.428783	66.5906	1.56354	-0.246588	0.006	-0.825863	0	0.929012	0	0	0	0	0	0	0	0	0	0
6.3	9.65752	546	-2.23197	-0.281589	0.006	-0.456838	0	0.765246	0	-0.24916	67.0091	1.92465	-0.246386	0.006	-0.826281	0	0.933105	0	0	0	0	0	0	0	0	0	0
6.31	9.02216	542.864	-2.22775	-0.281237	0.006	-0.456721	0	0.653277	0	-0.0950875	67.3047	2.23874	-0.246084	0.006	-0.826617	0	0.93354	0	0	0	0	0	0	0	0	0	0
6.32	8.33418	539.211	-2.19659	-0.280854	0.006	-0.456609	0	0.539669	0	0.0365452	67.5037	2.50265	-0.245683	0.006	-0.826875	0	0.92993	0	0	0	0	0	0	0	0	0	0
6.33	7.60002	535.165	-2.15185	-0.280445	0.006	-0.456499	0	0.424657	0	0.154285	67.6539	2.72018	-0.245193	0.006	-0.827066	0	0.922095	0	0	0	0	0	0	0	0	0	0
6.34	6.83229	530.865	-2.10782	-0.280015	0.006	-0.456389	0	0.308589	0	0.267861	67.8042	2.8989	-0.24463	0.006	-0.827202	0	0.910057	0	0	0	0	0	0	0	0	0	0
6.35	6.04935	526.451	-2.07798	-0.279571	0.006	-0.456276	0	0.191947	0	0.384941	67.9883	3.04695	-0.244006	0.006	-0.827293	0	0.894088	0	0	0	0	0	0	0	0	0	0
6.36	5.27386	522.056	-2.0738	-0.279122	0.006	-0.456156	0	0.075469	0	0.508656	68.2131	3.17104	-0.24333	0.006	-0.827347	0	0.874758	0	0	0	0	0	0	0	0	0	0
6.37	4.5301	517.8	-2.10357	-0.278676	0.006	-0.456029	0	-0.039882	0	0.63749	68.454	3.27367	-0.242606	0.006	-0.827364	0	0.852879	0	0	0	0	0	0	0	0	0	0
6.38	3.84095	513.783	-2.17124	-0.278237	0.006	-0.455893	0	-0.153012	0	0.766093	68.6609	3.35158	-0.241826	0.006	-0.827342	0	0.829297	0	0	0	0	0	0	0	0	0	0
6.39	3.22369	510.083	-2.27622	-0.277809	0.006	-0.455748	0	-0.262823	0	0.886494	68.7749	3.39804	-0.240977	0.006	-0.827272	0	0.804756	0	0	0	0	0	0	0	0	0	0
6.4	2.68654	506.744	-2.41444	-0.277391	0.006	-0.455597	0	-0.368265	0	0.990262	68.7463	3.40677	-0.240042	0.006	-0.82715	0	0.779944	0	0	0	0	0	0	0	0	0	0
6.41	2.2293	503.785	-2.58043	-0.27698	0.006	-0.455439	0	-0.468398	0	1.07102	68.549	3.37507	-0.239009	0.006	-0.826972	0	0.755555	0	0	0	0	0	0	0	0	0	0
6.42	1.84515	501.198	-2.76867	-0.276573	0.006	-0.455278	0	-0.562485	0	1.12657	68.1896	3.30641	-0.237878	0.006	-0.826741	0	0.732285	0	0	0	0	0	0	0	0	0	0
6.43	1.52082	498.95	-2.97389	-0.276167	0.006	-0.455115	0	-0.650026	0	1.15895	67.7103	3.21184	-0.236666	0.006	-0.82647	0	0.710756	0	0	0	0	0	0	0	0	0	0
6.44	1.2384	496.981	-3.191	-0.275757	0.006	-0.454953	0	-0.730764	0	1.17355	67.1796	3.10827	-0.235408	0.006	-0.826181	0	0.691393	0	0	0	0	0	0	0	0	0	0
6.45	0.977707	495.209	-3.41578	-0.275342	0.006	-0.454793	0	-0.804652	0	1.17706	66.6753	3.01517	-0.23415	0.006	-0.825903	0	0.674412	0	0	0	0	0	0	0	0	0	0
6.46	0.716489	493.537	-3.64424	-0.274917	0.006	-0.454636	0	-0.871709	0	1.17552	66.2658	2.95111	-0.232938	0.006	-0.825667	0	0.659862	0	0	0	0	0	0	0	0	0	0
6.47	0.432056	491.86	-3.87203	-0.274474	0.006	-0.454485	0	-0.931966	0	1.17327	65.998	2.93056	-0.231815	0.006	-0.825496	0	0.647603	0	0	0	0	0	0	0	0	0	0
6.48	0.104249	490.079	-4.09512	-0.274003	0.006	-0.454341	0	-0.985484	0	1.17308	65.8909	2.96225	-0.230815	0.006	-0.825404	0	0.637248	0	0	0	0	0	0	0	0	0	0
6.49	-0.279986	488.115	-4.30993	-0.273497	0.006	-0.454204	0	-1.03236	0	1.17651	65.9359	3.04858	-0.229959	0.006	-0.825394	0	0.628282	0	0	0	0	0	0	0	0	0	0
6.5	-0.722937	485.912	-4.51316	-0.272948	0.006	-0.454073	0	-1.0727	0	1.18381	66.1042	3.18546	-0.229259	0.006	-0.825457	0	0.62022	0	0	0	0	0	0	0	0	0	0
6.51	-1.21544	483.447	-4.70218	-0.272353	0.006	-0.453949	0	-1.10661	0	1.19367	66.3572	3.36326	-0.228712	0.006	-0.825575	0	0.612667	0	0	0	0	0	0	0	0	0	0
6.52	-1.73874	480.719	-4.87514	-0.271713	0.006	-0.453832	0	-1.13416	0	1.20278	66.654	3.56963	-0.228307	0.006	-0.825725	0	0.605408	0	0	0	0	0	0	0	0	0	0
6.53	-2.26825	477.748	-5.03044	-0.271031	0.006	-0.453722	0	-1.15539	0	1.20583	66.9592	3.79255	-0.228016	0.006	-0.825886	0	0.598337	0	0	0	0	0	0	0	0	0	0
6.54	-2.77963	474.565	-5.16615	-0.270311	0.006	-0.45362	0	-1.17034	0	1.19606	67.2495	4.02286	-0.227807	0.006	-0.826043	0	0.591369	0	0	0	0	0	0	0	0	0	0
6.55	-3.25423	471.208	-5.27983	-0.269556	0.006	-0.453529	0	-1.17905	0	1.16663	67.515	4.25591	-0.227649	0.006	-0.826189	0	0.584444	0	0	0	0	0	0	0	0	0	0
6.56	-3.67955	467.708	-5.36877	-0.268771	0.006	-0.45345	0	-1.1816	0	1.11182	67.7585	4.49186	-0.227512	0.006	-0.826322	0	0.577548	0	0	0	0	0	0	0	0	0	0
6.57	-4.04589	464.097	-5.43096	-0.267964	0.006	-0.453385	0	-1.17837	0	1.02799	67.993	4.73324	-0.227375	0.006	-0.826448	0	0.570628	0	0	0	0	0	0	0	0	0	0
6.58	-4.34317	460.409	-5.46551	-0.267152	0.006	-0.453336	0	-1.17002	0	0.914574	68.2385	4.98263	-0.227223	0.006	-0.826572	0	0.563575	0	0	0	0	0	0	0	0	0	0
6.59	-4.55754	456.686	-5.47272	-0.266357	0.006	-0.453304	0	-1.15743	0	0.774516	68.5152	5.24125	-0.22705	0.006	-0.826698	0	0.556243	0	0	0	0	0	0	0	0	0	0
6.6	-4.66818	452.978	-5.4546	-0.26561	0.006	-0.453291	0	-1.14156	0	0.613967	68.8367	5.50793	-0.226863	0.006	-0.82683	0	0.548521	0	0	0	0	0	0	0	0	0	0
6.61	-4.64849	449.349	-5.41506	-0.264945	0.006	-0.453297	0	-1.12317	0	0.441043	69.2065	5.7782	-0.226675	0.006	-0.82697	0	0.540401	0	0	0	0	0	0	0	0	0	0
6.62	-4.47203	445.88	-5.35958	-0.264391	0.006	-0.453322	0	-1.10274	0	0.264433	69.6157	6.04455	-0.226501	0.006	-0.827113	0	0.531978	0	0	0	0	0	0	0	0	0	0
6.63	-4.12049	442.656	-5.29477	-0.26397	0.006	-0.453365	0	-1.08026	0	0.0927248	70.0424	6.29758	-0.226356	0.006	-0.827256	0	0.523417	0	0	0	0	0	0	0	0	0	0
6.64	-3.59172	439.756	-5.22903	-0.263684	0.006	-0.453423	0	-1.05524	0	-0.0664585	70.4543	6.52708	-0.226243	0.006	-0.827391	0	0.514931	0	0	0	0	0	0	0	0	0	0
6.65	-2.90758	437.239	-5.17279	-0.26352	0.006	-0.453493	0	-1.02686	0	-0.207259	70.8138	6.72383	-0.226152	0.006	-0.827508	0	0.506757	0	0	0	0	0	0	0	0	0	0
6.66	-2.11141	435.132	-5.13695	-0.26345	0.006	-0.453569	0	-0.994285	0	-0.326205	71.0813	6.88096	-0.226058	0.006	-0.827599	0	0.499049	0	0	0	0	0	0	0	0	0	0
6.67	-1.25779	433.443	-5.1305	-0.263436	0.006	-0.453644	0	-0.956914	0	-0.42308	71.2198	6.99472	-0.225927	0.006	-0.827658	0	0.491858	0	0	0	0	0	0	0	0	0	0
6.68	-0.40259	432.17	-5.15848	-0.26344	0.006	-0.453715	0	-0.914579	0	-0.501347	71.1981	7.06425	-0.225721	0.006	-0.827686	0	0.485119	0	0	0	0	0	0	0	0	0	0
6.69	0.402865	431.31	-5.22147	-0.263431	0.006	-0.453778	0	-0.867432	0	-0.566922	70.9904	7.09093	-0.225403	0.006	-0.827687	0	0.478813	0	0	0	0	0	0	0	0	0	0
6.7	1.116	430.853	-5.31671	-0.263385	0.006	-0.453832	0	-0.815867	0	-0.626473	70.5751	7.07784	-0.224937	0.006	-0.827667	0	0.47296	0	0	0	0	0	0	0	0	0	0
6.71	1.7067	430.797	-5.43867	-0.26329	0.006	-0.453876	0	-0.760604	0	-0.68612	69.9356	7.0293	-0.224293	0.006	-0.827632	0	0.467489	0	0	0	0	0	0	0	0	0	0
6.72	2.16048	431.15	-5.57882	-0.263148	0.006	-0.453912	0	-0.702626	0	-0.750308	69.06	6.94957	-0.223451	0.006	-0.827589	0	0.462305	0	0	0	0	0	0	0	0	0	0
6.73	2.4807	431.935	-5.72757	-0.262968	0.006	-0.453945	0	-0.643211	0	-0.820365	67.9366	6.842	-0.222391	0.006	-0.827541	0	0.45726	0	0	0	0	0	0	0	0	0	0
6.74	2.68441	433.176	-5.87745	-0.262766	0.006	-0.453977	0	-0.583862	0	-0.893781	66.5502	6.7081	-0.221098	0.006	-0.827485	0	0.452156	0	0	0	0	0	0	0	0	0	0
6.75	2.79373	434.885	-6.0251	-0.26256	0.006	-0.454009	0	-0.526084	0	-0.965285	64.8834	6.5475	-0.219561	0.006	-0.827414	0	0.446776	0	0	0	0	0	0	0	0	0	0
6.76	2.82958	437.048	-6.17144	-0.262362	0.006	-0.454041	0	-0.471148	0	-1.02873	62.92	6.35826	-0.217766	0.006	-0.827315	0	0.440975	0	0	0	0	0	0	0	0	0	0
6.77	2.81057	439.624	-6.32167	-0.26218	0.006	-0.454072	0	-0.420116	0	-1.07838	60.6493	6.13719	-0.215703	0.006	-0.827172	0	0.434637	0	0	0	0	0	0	0	0	0	0
6.78	2.75309	442.551	-6.48324	-0.262019	0.006	-0.454101	0	-0.373711	0	-1.10996	58.0727	5.8795	-0.213348	0.006	-0.826958	0	0.427749	0	0	0	0	0	0	0	0	0	0
6.79	2.67181	445.753	-6.66402	-0.26188	0.006	-0.454127	0	-0.332326	0	-1.12144	55.2098	5.57891	-0.210674	0.006	-0.826642	0	0.42059	0	0	0	0	0	0	0	0	0	0
6.8	2.57923	449.151	-6.87127	-0.261758	0.006	-0.454148	0	-0.296149	0	-1.11438	52.1006	5.22942	-0.207639	0.006	-0.82619	0	0.413676	0	0	0	0	0	0	0	0	0	0
6.81	2.48486	452.656	-7.1103	-0.261645	0.006	-0.454164	0	-0.26515	0	-1.09462	48.8033	4.82651	-0.204196	0.006	-0.825562	0	0.407799	0	0	0	0	0	0	0	0	0	0
6.82	2.39461	456.173	-7.38407	-0.26153	0.006	-0.454174	0	-0.239128	0	-1.07127	45.3906	4.36769	-0.200285	0.006	-0.824713	0	0.403978	0	0	0	0	0	0	0	0	0	0
6.83	2.31114	459.596	-7.69258	-0.261398	0.006	-0.454179	0	-0.217817	0	-1.05565	41.9445	3.85315	-0.195847	0.006	-0.823594	0	0.403493	0	0	0	0	0	0	0	0	0	0
6.84	2.2354	462.824	-8.03014	-0.261235	0.006	-0.454183	0	-0.200888	0	-1.05934	38.5517	3.28667	-0.19083	0.006	-0.822155	0	0.407815	0	0	0	0	0	0	0	0	0	0
6.85	2.16766	465.773	-8.38396	-0.26103	0.006	-0.454187	0	-0.187989	0	-1.09093	35.2963	2.67569	-0.185201	0.006	-0.820347	0	0.418429	0	0	0	0	0	0	0	0	0	0
6.86	2.108	468.398	-8.73453	-0.260772	0.006	-0.454196	0	-0.178728	0	-1.15338	32.2544	2.03203	-0.178966	0.006	-0.818142	0	0.436699	0	0	0	0	0	0	0	0	0	0
6.87	2.05752	470.692	-9.05879	-0.260455	0.006	-0.454213	0	-0.17269	0	-1.24374	29.49	1.37265	-0.172183	0.006	-0.815543	0	0.463579	0	0	0	0	0	0	0	0	0	0
6.88	2.01845	472.683	-9.3364	-0.260074	0.006	-0.45424	0	-0.169501	0	-1.35535	27.0538	0.718874	-0.165004	0.006	-0.812608	0	0.499195	0	0	0	0	0	0	0	0	0	0
6.89	1.99155	474.422	-9.55582	-0.259627	0.006	-0.45428	0	-0.169013	0	-1.48123	24.9824	0.093865	-0.157678	0.006	-0.809464	0	0.542412	0	0	0	0	0	0	0	0	0	0
6.9	1.97424	475.974	-9.7169	-0.259111	0.006	-0.45433	0	-0.171446	0	-1.61719	23.2991	-0.480703	-0.150551	0.006	-0.806311	0	0.590707	0	0	0	0	0	0	0	0	0	0
6.91	1.96131	477.401	-9.83121	-0.258526	0.006	-0.454388	0	-0.177125	0	-1.76197	22.0139	-0.986663	-0.144026	0.006	-0.803397	0	0.640486	0	0	0	0	0	0	0	0	0	0
6.92	1.94388	478.76	-9.91979	-0.257871	0.006	-0.454451	0	-0.186267	0	-1.91524	21.1239	-1.40997	-0.138498	0.006	-0.800981	0	0.687688	0	0	0	0	0	0	0	0	0	0
6.93	1.90707	480.096	-10.0073	-0.257145	0.006	-0.454515	0	-0.198838	0	-2.07737	20.6171	-1.74045	-0.134281	0.006	-0.799283	0	0.728337	0	0	0	0	0	0	0	0	0	0
6.94	1.83304	481.442	-10.116	-0.256349	0.006	-0.454576	0	-0.214387	0	-2.24978	20.4757	-1.97082	-0.131543	0.006	-0.79844	0	0.759113	0	0	0	0	0	0	0	0	0	0
6.95	1.70774	482.821	-10.2621	-0.255485	0.006	-0.454632	0	-0.23202	0	-2.43473	20.6779	-2.09619	-0.130288	0.006	-0.798486	0	0.777792	0	0	0	0	0	0	0	0	0	0
6.96	1.52489	484.255	-10.4533	-0.254558	0.006	-0.454681	0	-0.250654	0	-2.63466	21.1998	-2.1142	-0.130378	0.006	-0.799347	0	0.783421	0	0	0	0	0	0	0	0	0	0
6.97	1.28578	485.767	-10.6886	-0.253573	0.006	-0.454723	0	-0.269068	0	-2.85141	22.016	-2.0252	-0.131571	0.006	-0.800876	0	0.776465	0	0	0	0	0	0	0	0	0	0
6.98	0.99741	487.371	-10.9587	-0.252542	0.006	-0.454761	0	-0.28602	0	-3.08585	23.1017	-1.83263	-0.133582	0.006	-0.802895	0	0.758581	0	0	0	0	0	0	0	0	0	0
6.99	0.669686	489.073	-11.2497	-0.251475	0.006	-0.454795	0	-0.300445	0	-3.33758	24.433	-1.54392	-0.136139	0.006	-0.805228	0	0.73219	0	0	0	0	0	0	0	0	0	0
7	0.31129	490.873	-11.5458	-0.250386	0.006	-0.454829	0	-0.311474	0	-3.6042	25.9876	-1.17115	-0.139011	0.006	-0.807722	0	0.700087	0	0	0	0	0	0	0	0	0	0
